<?xml version="1.0" encoding="utf-8"?>
<!-- Generator: Adobe Illustrator 26.2.1, SVG Export Plug-In . SVG Version: 6.00 Build 0)  -->
<svg version="1.1" xmlns="http://www.w3.org/2000/svg" xmlns:xlink="http://www.w3.org/1999/xlink" x="0px" y="0px"
	 viewBox="0 0 1366 768" style="enable-background:new 0 0 1366 768;" xml:space="preserve">
<style type="text/css">
	.st0{opacity:0.8;}
	.st1{fill:#FFFFFF;}
	.st2{fill:#FFF7FF;}
	.st3{fill:#FFEFFF;}
	.st4{fill:#FFE6FF;}
	.st5{fill:#FFDEFF;}
	.st6{fill:#FFD6FF;}
	.st7{fill:#FFCEFF;}
	.st8{fill:#FFC5FF;}
	.st9{fill:#FFBDFF;}
	.st10{fill:#FFB5FF;}
	.st11{fill:#FFADFF;}
	.st12{fill:#FFA5FF;}
	.st13{fill:#FF9CFF;}
	.st14{fill:#FF94FF;}
	.st15{fill:#FF8CFF;}
	.st16{fill:#FF84FF;}
	.st17{fill:#FF7BFF;}
	.st18{fill:#FF73FF;}
	.st19{fill:#FF6BFF;}
	.st20{fill:#FF63FF;}
	.st21{fill:#FF5AFF;}
	.st22{fill:#FF52FF;}
	.st23{fill:#FF4AFF;}
	.st24{fill:#FF42FF;}
	.st25{fill:#FF3AFF;}
	.st26{fill:#FF31FF;}
	.st27{fill:#FF29FF;}
	.st28{fill:#FF21FF;}
	.st29{fill:#FF19FF;}
	.st30{fill:#FF10FF;}
	.st31{fill:#FF08FF;}
	.st32{fill:#FF00FF;}
	.st33{fill:#F8FCFE;}
	.st34{fill:#F1FAFD;}
	.st35{fill:#EAF7FC;}
	.st36{fill:#E3F4FB;}
	.st37{fill:#DCF1FA;}
	.st38{fill:#D6EFF9;}
	.st39{fill:#CFECF8;}
	.st40{fill:#C8E9F8;}
	.st41{fill:#C1E7F7;}
	.st42{fill:#BAE4F6;}
	.st43{fill:#B3E1F5;}
	.st44{fill:#ACDEF4;}
	.st45{fill:#A5DCF3;}
	.st46{fill:#9ED9F2;}
	.st47{fill:#97D6F1;}
	.st48{fill:#91D4F0;}
	.st49{fill:#8AD1EF;}
	.st50{fill:#83CEEE;}
	.st51{fill:#7CCCED;}
	.st52{fill:#75C9EC;}
	.st53{fill:#6EC6EB;}
	.st54{fill:#67C3EA;}
	.st55{fill:#60C1E9;}
	.st56{fill:#59BEE9;}
	.st57{fill:#52BBE8;}
	.st58{fill:#4CB9E7;}
	.st59{fill:#45B6E6;}
	.st60{fill:#3EB3E5;}
	.st61{fill:#37B0E4;}
	.st62{fill:#30AEE3;}
	.st63{fill:#29ABE2;}
	.st64{fill:#662D91;}
	.st65{fill:#03FF6E;}
	.st66{fill:#FF33A3;}
	.st67{fill:#F3F6F7;}
	.st68{font-family:'ArialMT';}
	.st69{font-size:36px;}
</style>
<g id="Layer_1">
	<g>
		<g class="st0">
			
				<ellipse transform="matrix(0.7071 -0.7071 0.7071 0.7071 -139.4634 330.7878)" class="st1" cx="329.56" cy="333.74" rx="204.58" ry="200.27"/>
			
				<ellipse transform="matrix(0.7071 -0.7071 0.7071 0.7071 -139.2846 330.3862)" class="st2" cx="329.17" cy="333.32" rx="204.58" ry="200.27"/>
			
				<ellipse transform="matrix(0.7071 -0.7071 0.7071 0.7071 -139.1058 329.9846)" class="st3" cx="328.77" cy="332.91" rx="204.58" ry="200.27"/>
			
				<ellipse transform="matrix(0.7071 -0.7071 0.7071 0.7071 -138.927 329.5831)" class="st4" cx="328.38" cy="332.49" rx="204.58" ry="200.27"/>
			
				<ellipse transform="matrix(0.7071 -0.7071 0.7071 0.7071 -138.7482 329.1815)" class="st5" cx="327.98" cy="332.07" rx="204.58" ry="200.27"/>
			
				<ellipse transform="matrix(0.7071 -0.7071 0.7071 0.7071 -138.5694 328.7799)" class="st6" cx="327.59" cy="331.66" rx="204.58" ry="200.27"/>
			
				<ellipse transform="matrix(0.7071 -0.7071 0.7071 0.7071 -138.3907 328.3784)" class="st7" cx="327.19" cy="331.24" rx="204.58" ry="200.27"/>
			
				<ellipse transform="matrix(0.7071 -0.7071 0.7071 0.7071 -138.2119 327.9768)" class="st8" cx="326.8" cy="330.82" rx="204.58" ry="200.27"/>
			
				<ellipse transform="matrix(0.7071 -0.7071 0.7071 0.7071 -138.0331 327.5752)" class="st9" cx="326.4" cy="330.41" rx="204.58" ry="200.27"/>
			
				<ellipse transform="matrix(0.7071 -0.7071 0.7071 0.7071 -137.8543 327.1736)" class="st10" cx="326.01" cy="329.99" rx="204.58" ry="200.27"/>
			
				<ellipse transform="matrix(0.7071 -0.7071 0.7071 0.7071 -137.6755 326.7721)" class="st11" cx="325.61" cy="329.58" rx="204.58" ry="200.27"/>
			
				<ellipse transform="matrix(0.7071 -0.7071 0.7071 0.7071 -137.4967 326.3705)" class="st12" cx="325.22" cy="329.16" rx="204.58" ry="200.27"/>
			
				<ellipse transform="matrix(0.7071 -0.7071 0.7071 0.7071 -137.3179 325.9689)" class="st13" cx="324.82" cy="328.74" rx="204.58" ry="200.27"/>
			
				<ellipse transform="matrix(0.7071 -0.7071 0.7071 0.7071 -137.1391 325.5674)" class="st14" cx="324.43" cy="328.33" rx="204.58" ry="200.27"/>
			
				<ellipse transform="matrix(0.7071 -0.7071 0.7071 0.7071 -136.9604 325.1658)" class="st15" cx="324.03" cy="327.91" rx="204.58" ry="200.27"/>
			
				<ellipse transform="matrix(0.7071 -0.7071 0.7071 0.7071 -136.7816 324.7642)" class="st16" cx="323.63" cy="327.49" rx="204.58" ry="200.27"/>
			
				<ellipse transform="matrix(0.7071 -0.7071 0.7071 0.7071 -136.6028 324.3627)" class="st17" cx="323.24" cy="327.08" rx="204.58" ry="200.27"/>
			
				<ellipse transform="matrix(0.7071 -0.7071 0.7071 0.7071 -136.424 323.9611)" class="st18" cx="322.84" cy="326.66" rx="204.58" ry="200.27"/>
			
				<ellipse transform="matrix(0.7071 -0.7071 0.7071 0.7071 -136.2452 323.5595)" class="st19" cx="322.45" cy="326.24" rx="204.58" ry="200.27"/>
			
				<ellipse transform="matrix(0.7071 -0.7071 0.7071 0.7071 -136.0664 323.1579)" class="st20" cx="322.05" cy="325.83" rx="204.58" ry="200.27"/>
			
				<ellipse transform="matrix(0.7071 -0.7071 0.7071 0.7071 -135.8876 322.7564)" class="st21" cx="321.66" cy="325.41" rx="204.58" ry="200.27"/>
			
				<ellipse transform="matrix(0.7071 -0.7071 0.7071 0.7071 -135.7088 322.3548)" class="st22" cx="321.26" cy="324.99" rx="204.58" ry="200.27"/>
			
				<ellipse transform="matrix(0.7071 -0.7071 0.7071 0.7071 -135.5301 321.9532)" class="st23" cx="320.87" cy="324.58" rx="204.58" ry="200.27"/>
			
				<ellipse transform="matrix(0.7071 -0.7071 0.7071 0.7071 -135.3513 321.5517)" class="st24" cx="320.47" cy="324.16" rx="204.58" ry="200.27"/>
			
				<ellipse transform="matrix(0.7071 -0.7071 0.7071 0.7071 -135.1725 321.1501)" class="st25" cx="320.08" cy="323.74" rx="204.58" ry="200.27"/>
			
				<ellipse transform="matrix(0.7071 -0.7071 0.7071 0.7071 -134.9937 320.7485)" class="st26" cx="319.68" cy="323.33" rx="204.58" ry="200.27"/>
			
				<ellipse transform="matrix(0.7071 -0.7071 0.7071 0.7071 -134.8149 320.347)" class="st27" cx="319.29" cy="322.91" rx="204.58" ry="200.27"/>
			
				<ellipse transform="matrix(0.7071 -0.7071 0.7071 0.7071 -134.6361 319.9454)" class="st28" cx="318.89" cy="322.49" rx="204.58" ry="200.27"/>
			
				<ellipse transform="matrix(0.7071 -0.7071 0.7071 0.7071 -134.4573 319.5438)" class="st29" cx="318.49" cy="322.08" rx="204.58" ry="200.27"/>
			
				<ellipse transform="matrix(0.7071 -0.7071 0.7071 0.7071 -134.2785 319.1422)" class="st30" cx="318.1" cy="321.66" rx="204.58" ry="200.27"/>
			
				<ellipse transform="matrix(0.7071 -0.7071 0.7071 0.7071 -134.0998 318.7407)" class="st31" cx="317.7" cy="321.24" rx="204.58" ry="200.27"/>
			
				<ellipse transform="matrix(0.7071 -0.7071 0.7071 0.7071 -133.921 318.3391)" class="st32" cx="317.31" cy="320.83" rx="204.58" ry="200.27"/>
		</g>
		<g class="st0">
			
				<ellipse transform="matrix(0.9957 -0.0932 0.0932 0.9957 -26.6813 29.7331)" class="st1" cx="305.09" cy="300.61" rx="204.58" ry="200.27"/>
			
				<ellipse transform="matrix(0.9957 -0.0932 0.0932 0.9957 -26.7345 29.7392)" class="st33" cx="305.13" cy="301.18" rx="204.58" ry="200.27"/>
			
				<ellipse transform="matrix(0.9957 -0.0932 0.0932 0.9957 -26.7878 29.7453)" class="st34" cx="305.16" cy="301.76" rx="204.58" ry="200.27"/>
			
				<ellipse transform="matrix(0.9957 -0.0932 0.0932 0.9957 -26.841 29.7514)" class="st35" cx="305.2" cy="302.33" rx="204.58" ry="200.27"/>
			
				<ellipse transform="matrix(0.9956 -0.0932 0.0932 0.9956 -26.8943 29.7575)" class="st36" cx="305.24" cy="302.9" rx="204.58" ry="200.27"/>
			
				<ellipse transform="matrix(0.9956 -0.0932 0.0932 0.9956 -26.9475 29.7636)" class="st37" cx="305.28" cy="303.48" rx="204.58" ry="200.27"/>
			
				<ellipse transform="matrix(0.9956 -0.0932 0.0932 0.9956 -27.0007 29.7697)" class="st38" cx="305.32" cy="304.05" rx="204.58" ry="200.27"/>
			
				<ellipse transform="matrix(0.9956 -0.0932 0.0932 0.9956 -27.054 29.7758)" class="st39" cx="305.36" cy="304.62" rx="204.58" ry="200.27"/>
			
				<ellipse transform="matrix(0.9956 -0.0932 0.0932 0.9956 -27.1072 29.782)" class="st40" cx="305.39" cy="305.19" rx="204.58" ry="200.27"/>
			
				<ellipse transform="matrix(0.9956 -0.0932 0.0932 0.9956 -27.1605 29.7881)" class="st41" cx="305.43" cy="305.77" rx="204.58" ry="200.27"/>
			
				<ellipse transform="matrix(0.9956 -0.0932 0.0932 0.9956 -27.2137 29.7942)" class="st42" cx="305.47" cy="306.34" rx="204.58" ry="200.27"/>
			
				<ellipse transform="matrix(0.9956 -0.0932 0.0932 0.9956 -27.267 29.8003)" class="st43" cx="305.51" cy="306.91" rx="204.58" ry="200.27"/>
			
				<ellipse transform="matrix(0.9956 -0.0932 0.0932 0.9956 -27.3202 29.8064)" class="st44" cx="305.55" cy="307.49" rx="204.58" ry="200.27"/>
			
				<ellipse transform="matrix(0.9956 -0.0932 0.0932 0.9956 -27.3735 29.8125)" class="st45" cx="305.59" cy="308.06" rx="204.58" ry="200.27"/>
			
				<ellipse transform="matrix(0.9956 -0.0932 0.0932 0.9956 -27.4267 29.8186)" class="st46" cx="305.63" cy="308.63" rx="204.58" ry="200.27"/>
			
				<ellipse transform="matrix(0.9956 -0.0932 0.0932 0.9956 -27.4799 29.8247)" class="st47" cx="305.66" cy="309.21" rx="204.58" ry="200.27"/>
			
				<ellipse transform="matrix(0.9956 -0.0932 0.0932 0.9956 -27.5332 29.8308)" class="st48" cx="305.7" cy="309.78" rx="204.58" ry="200.27"/>
			
				<ellipse transform="matrix(0.9956 -0.0932 0.0932 0.9956 -27.5864 29.8369)" class="st49" cx="305.74" cy="310.35" rx="204.58" ry="200.27"/>
			
				<ellipse transform="matrix(0.9956 -0.0932 0.0932 0.9956 -27.6397 29.843)" class="st50" cx="305.78" cy="310.92" rx="204.58" ry="200.27"/>
			
				<ellipse transform="matrix(0.9956 -0.0932 0.0932 0.9956 -27.6929 29.8491)" class="st51" cx="305.82" cy="311.5" rx="204.58" ry="200.27"/>
			
				<ellipse transform="matrix(0.9956 -0.0932 0.0932 0.9956 -27.7462 29.8552)" class="st52" cx="305.86" cy="312.07" rx="204.58" ry="200.27"/>
			
				<ellipse transform="matrix(0.9956 -0.0932 0.0932 0.9956 -27.7994 29.8613)" class="st53" cx="305.9" cy="312.64" rx="204.58" ry="200.27"/>
			
				<ellipse transform="matrix(0.9956 -0.0932 0.0932 0.9956 -27.8527 29.8675)" class="st54" cx="305.93" cy="313.22" rx="204.58" ry="200.27"/>
			
				<ellipse transform="matrix(0.9956 -0.0932 0.0932 0.9956 -27.9059 29.8736)" class="st55" cx="305.97" cy="313.79" rx="204.58" ry="200.27"/>
			
				<ellipse transform="matrix(0.9956 -0.0932 0.0932 0.9956 -27.9591 29.8797)" class="st56" cx="306.01" cy="314.36" rx="204.58" ry="200.27"/>
			
				<ellipse transform="matrix(0.9956 -0.0932 0.0932 0.9956 -28.0124 29.8858)" class="st57" cx="306.05" cy="314.94" rx="204.58" ry="200.27"/>
			
				<ellipse transform="matrix(0.9956 -0.0932 0.0932 0.9956 -28.0656 29.8919)" class="st58" cx="306.09" cy="315.51" rx="204.58" ry="200.27"/>
			
				<ellipse transform="matrix(0.9956 -0.0932 0.0932 0.9956 -28.1189 29.898)" class="st59" cx="306.13" cy="316.08" rx="204.58" ry="200.27"/>
			
				<ellipse transform="matrix(0.9956 -0.0932 0.0932 0.9956 -28.1721 29.9041)" class="st60" cx="306.17" cy="316.66" rx="204.58" ry="200.27"/>
			
				<ellipse transform="matrix(0.9956 -0.0932 0.0932 0.9956 -28.2254 29.9102)" class="st61" cx="306.2" cy="317.23" rx="204.58" ry="200.27"/>
			
				<ellipse transform="matrix(0.9956 -0.0932 0.0932 0.9956 -28.2786 29.9163)" class="st62" cx="306.24" cy="317.8" rx="204.58" ry="200.27"/>
			
				<ellipse transform="matrix(0.9956 -0.0932 0.0932 0.9956 -28.3319 29.9224)" class="st63" cx="306.28" cy="318.37" rx="204.58" ry="200.27"/>
		</g>
		<g>
			<g>
				<circle class="st64" cx="313.74" cy="313.51" r="204.58"/>
				<path class="st64" d="M114.75,317.6c0-112.99,91.59-204.58,204.58-204.58c43.85,0,84.47,13.8,117.77,37.29
					c-34.3-25.97-77.03-41.38-123.36-41.38c-112.99,0-204.58,91.59-204.58,204.58c0,69.14,34.3,130.26,86.81,167.29
					C146.63,443.46,114.75,384.25,114.75,317.6z"/>
			</g>
		</g>
	</g>
	<g>
		<path class="st1" d="M235.2,255.88l25.2,84.31l24.84-84.31h37.17l-47.32,128.73h-29.37l-47.87-128.73H235.2z"/>
		<path class="st1" d="M406.18,297.94c-3.63-2.18-7.37-4.11-11.24-5.8c-3.26-1.45-6.92-2.81-10.97-4.08
			c-4.05-1.27-8.01-1.9-11.88-1.9c-3.14,0-5.65,0.48-7.52,1.45c-1.87,0.97-2.81,2.6-2.81,4.9c0,1.69,0.54,3.08,1.63,4.17
			c1.09,1.09,2.66,2.09,4.71,2.99c2.05,0.91,4.56,1.78,7.52,2.63c2.96,0.85,6.31,1.88,10.06,3.08c5.92,1.81,11.27,3.81,16.05,5.98
			c4.77,2.18,8.85,4.75,12.24,7.71c3.38,2.96,5.98,6.56,7.8,10.79c1.81,4.23,2.72,9.37,2.72,15.41c0,7.74-1.42,14.23-4.26,19.49
			c-2.84,5.26-6.59,9.46-11.24,12.6c-4.65,3.15-9.91,5.41-15.77,6.8c-5.86,1.39-11.76,2.08-17.68,2.08c-4.71,0-9.55-0.36-14.5-1.09
			c-4.96-0.73-9.88-1.75-14.78-3.08c-4.9-1.33-9.61-2.9-14.14-4.71c-4.53-1.81-8.73-3.87-12.6-6.16l15.23-31
			c4.23,2.66,8.64,5.02,13.24,7.07c3.87,1.81,8.25,3.44,13.15,4.9c4.9,1.45,9.88,2.18,14.96,2.18c3.87,0,6.56-0.51,8.07-1.54
			c1.51-1.03,2.27-2.39,2.27-4.08c0-1.81-0.76-3.35-2.27-4.62c-1.51-1.27-3.6-2.39-6.26-3.35c-2.66-0.97-5.71-1.93-9.16-2.9
			c-3.44-0.97-7.1-2.11-10.97-3.45c-5.68-1.93-10.58-4.02-14.69-6.25c-4.11-2.24-7.5-4.77-10.15-7.62c-2.66-2.84-4.62-6.07-5.89-9.7
			c-1.27-3.63-1.9-7.8-1.9-12.51c0-7.13,1.3-13.42,3.9-18.86c2.6-5.44,6.13-9.97,10.61-13.6c4.47-3.63,9.58-6.37,15.32-8.25
			c5.74-1.87,11.81-2.81,18.22-2.81c4.71,0,9.31,0.45,13.78,1.36c4.47,0.91,8.79,2.06,12.96,3.45c4.17,1.39,8.07,2.9,11.69,4.53
			c3.63,1.63,6.89,3.17,9.79,4.62L406.18,297.94z"/>
	</g>
</g>
<g id="Layer_2">
	<g>
		<g>
			<path class="st65" d="M608.57,287.49l-18.65-55.41h20.54l9.9,39.72l10.01-39.72h18.65l-18.65,55.41H608.57z"/>
			<path class="st65" d="M654.82,227.44v-16.86h20.02v16.86H654.82z M654.82,287.49v-55.41h20.02v55.41H654.82z"/>
			<path class="st65" d="M723.62,249.14c-3.86,0-7.37,0.42-10.54,1.26c-3.16,0.84-5.51,2.25-7.06,4.21v32.87h-20.02v-55.41h18.33
				v10.54c1.96-3.72,4.41-6.58,7.32-8.59c2.91-2,6.06-3,9.43-3c1.33,0,2.18,0.04,2.53,0.11V249.14z"/>
			<path class="st65" d="M769.86,284.43c-2.81,1.19-5.81,2.2-9.01,3c-3.2,0.81-6.34,1.21-9.43,1.21c-2.25,0-4.39-0.28-6.43-0.84
				c-2.04-0.56-3.81-1.47-5.32-2.74c-1.51-1.26-2.7-2.91-3.58-4.95c-0.88-2.04-1.32-4.56-1.32-7.58v-25.39h-6.85v-15.06h6.85v-17.38
				h20.02v17.38h10.85v15.06H754.8v18.33c0,1.83,0.39,3.11,1.16,3.85c0.77,0.74,1.83,1.11,3.16,1.11c0.98,0,2.11-0.16,3.37-0.47
				c1.26-0.32,2.53-0.75,3.79-1.32L769.86,284.43z"/>
			<path class="st65" d="M793.57,288.54c-5.62,0-9.9-1.7-12.85-5.11c-2.95-3.41-4.43-8.37-4.43-14.91v-36.45h20.02V264
				c0,2.46,0.54,4.36,1.63,5.69c1.09,1.33,2.58,2,4.48,2c1.54,0,3.12-0.35,4.74-1.05c1.61-0.7,3.23-2.25,4.85-4.64v-33.92h20.02
				v33.29c0,1.9,0.35,3.21,1.05,3.95c0.7,0.74,1.97,1.18,3.79,1.32v16.86c-2.04,0.35-3.83,0.61-5.37,0.79
				c-1.55,0.17-2.92,0.26-4.11,0.26c-6.81,0-10.75-2.56-11.8-7.69l-0.42-2c-2.6,3.44-5.69,5.92-9.27,7.43
				C802.31,287.79,798.2,288.54,793.57,288.54z"/>
			<path class="st65" d="M862.15,288.54c-2.74,0-5.3-0.46-7.69-1.37c-2.39-0.91-4.44-2.16-6.16-3.74c-1.72-1.58-3.07-3.46-4.06-5.64
				c-0.98-2.18-1.47-4.53-1.47-7.06c0-2.81,0.6-5.37,1.79-7.69c1.19-2.32,2.84-4.32,4.95-6.01c2.11-1.69,4.62-2.98,7.53-3.9
				c2.91-0.91,6.13-1.37,9.64-1.37c4.49,0,8.22,0.7,11.17,2.11v-1.69c0-2.6-0.76-4.53-2.26-5.79c-1.51-1.26-3.95-1.9-7.32-1.9
				c-3.16,0-6.08,0.51-8.74,1.53c-2.67,1.02-5.48,2.51-8.43,4.48l-5.79-12.43c7.3-4.7,15.63-7.06,24.97-7.06
				c8.85,0,15.66,1.97,20.44,5.9c4.78,3.93,7.16,9.83,7.16,17.7v10.75c0,1.9,0.35,3.21,1.05,3.95c0.7,0.74,1.96,1.18,3.79,1.32
				v16.86c-1.83,0.35-3.55,0.61-5.16,0.79c-1.62,0.17-3.05,0.26-4.32,0.26c-3.58,0-6.31-0.65-8.16-1.95
				c-1.86-1.3-3.07-3.21-3.64-5.74l-0.42-2c-2.46,3.16-5.3,5.57-8.53,7.22C869.24,287.72,865.8,288.54,862.15,288.54z
				 M868.15,274.21c1.19,0,2.42-0.19,3.69-0.58c1.26-0.39,2.39-0.9,3.37-1.53c0.77-0.56,1.4-1.18,1.9-1.84
				c0.49-0.67,0.74-1.35,0.74-2.05v-4.11c-1.19-0.42-2.49-0.77-3.9-1.05c-1.4-0.28-2.67-0.42-3.79-0.42c-2.46,0-4.5,0.6-6.11,1.79
				c-1.62,1.2-2.42,2.7-2.42,4.53c0,1.55,0.61,2.81,1.84,3.79C864.69,273.72,866.26,274.21,868.15,274.21z"/>
			<path class="st65" d="M910.19,210.58h20.02v53.52c0,4.21,1.72,6.32,5.16,6.32c0.84,0,1.75-0.14,2.74-0.42
				c0.98-0.28,1.9-0.67,2.74-1.16l2.53,16.12c-2.39,1.12-5.08,2-8.06,2.63c-2.99,0.63-5.81,0.95-8.48,0.95
				c-5.34,0-9.45-1.37-12.33-4.11c-2.88-2.74-4.32-6.71-4.32-11.9V210.58z"/>
			<path class="st65" d="M974.45,288.54c-2.32,0-4.81-0.18-7.48-0.53c-2.67-0.35-5.29-0.81-7.85-1.37
				c-2.56-0.56-5.04-1.25-7.43-2.05c-2.39-0.81-4.46-1.7-6.22-2.69l7.69-13.59c3.86,2.04,7.55,3.58,11.06,4.64
				c3.51,1.05,6.78,1.58,9.8,1.58c3.51,0,5.27-0.88,5.27-2.63c0-0.91-0.7-1.72-2.11-2.42c-1.41-0.7-4.07-1.54-8.01-2.53
				c-3.93-1.05-7.23-2.11-9.9-3.16c-2.67-1.05-4.81-2.23-6.43-3.53c-1.62-1.3-2.77-2.74-3.48-4.32c-0.7-1.58-1.05-3.42-1.05-5.53
				c0-2.81,0.58-5.41,1.74-7.8c1.16-2.39,2.79-4.46,4.9-6.22c2.11-1.75,4.62-3.11,7.53-4.06c2.91-0.95,6.09-1.42,9.54-1.42
				c3.72,0,7.71,0.53,11.96,1.58c4.25,1.05,8.59,2.6,13.01,4.64l-7.69,12.75c-3.93-1.83-7.2-3.14-9.8-3.95
				c-2.6-0.81-5.09-1.21-7.48-1.21c-1.55,0-2.79,0.23-3.74,0.68c-0.95,0.46-1.42,1.18-1.42,2.16c0,0.56,0.14,1.04,0.42,1.42
				c0.28,0.39,0.77,0.76,1.47,1.11c0.7,0.35,1.67,0.72,2.9,1.11c1.23,0.39,2.75,0.79,4.58,1.21c4.21,1.05,7.76,2.16,10.64,3.32
				c2.88,1.16,5.18,2.42,6.9,3.79c1.72,1.37,2.95,2.92,3.69,4.64c0.74,1.72,1.11,3.71,1.11,5.95c0,5.69-2.16,10.18-6.48,13.48
				C987.78,286.89,981.89,288.54,974.45,288.54z"/>
			<path class="st65" d="M1043.67,288.54c-4,0-7.48-0.79-10.43-2.37c-2.95-1.58-5.23-3.88-6.85-6.9v30.66h-20.02v-77.85h17.38v8.32
				c1.97-3.02,4.39-5.34,7.27-6.95c2.88-1.61,6.43-2.42,10.64-2.42c3.65,0,7.06,0.72,10.22,2.16c3.16,1.44,5.86,3.42,8.11,5.95
				c2.25,2.53,4.02,5.55,5.32,9.06c1.3,3.51,1.95,7.31,1.95,11.38c0,4.15-0.6,7.99-1.79,11.54c-1.19,3.55-2.84,6.62-4.95,9.22
				c-2.11,2.6-4.6,4.62-7.48,6.06C1050.16,287.82,1047.04,288.54,1043.67,288.54z M1036.71,271.69c1.47,0,2.83-0.32,4.06-0.95
				c1.23-0.63,2.28-1.51,3.16-2.63c0.88-1.12,1.58-2.42,2.11-3.9c0.53-1.47,0.79-3.06,0.79-4.74c0-3.51-1-6.32-3-8.43
				c-2-2.11-4.65-3.16-7.95-3.16c-3.72,0-6.88,1.9-9.48,5.69v9.59c0.98,2.46,2.42,4.5,4.32,6.11
				C1032.6,270.88,1034.61,271.69,1036.71,271.69z"/>
			<path class="st65" d="M1091.81,288.54c-2.74,0-5.3-0.46-7.69-1.37c-2.39-0.91-4.44-2.16-6.16-3.74
				c-1.72-1.58-3.07-3.46-4.06-5.64c-0.98-2.18-1.47-4.53-1.47-7.06c0-2.81,0.6-5.37,1.79-7.69c1.19-2.32,2.84-4.32,4.95-6.01
				c2.11-1.69,4.62-2.98,7.53-3.9c2.91-0.91,6.13-1.37,9.64-1.37c4.49,0,8.22,0.7,11.17,2.11v-1.69c0-2.6-0.76-4.53-2.26-5.79
				c-1.51-1.26-3.95-1.9-7.32-1.9c-3.16,0-6.08,0.51-8.74,1.53c-2.67,1.02-5.48,2.51-8.43,4.48l-5.79-12.43
				c7.3-4.7,15.63-7.06,24.97-7.06c8.85,0,15.66,1.97,20.44,5.9c4.78,3.93,7.16,9.83,7.16,17.7v10.75c0,1.9,0.35,3.21,1.05,3.95
				c0.7,0.74,1.96,1.18,3.79,1.32v16.86c-1.83,0.35-3.55,0.61-5.16,0.79c-1.62,0.17-3.05,0.26-4.32,0.26
				c-3.58,0-6.31-0.65-8.16-1.95c-1.86-1.3-3.07-3.21-3.64-5.74l-0.42-2c-2.46,3.16-5.3,5.57-8.53,7.22
				C1098.9,287.72,1095.46,288.54,1091.81,288.54z M1097.81,274.21c1.19,0,2.42-0.19,3.69-0.58c1.26-0.39,2.39-0.9,3.37-1.53
				c0.77-0.56,1.4-1.18,1.9-1.84c0.49-0.67,0.74-1.35,0.74-2.05v-4.11c-1.19-0.42-2.49-0.77-3.9-1.05c-1.4-0.28-2.67-0.42-3.79-0.42
				c-2.46,0-4.5,0.6-6.11,1.79c-1.62,1.2-2.42,2.7-2.42,4.53c0,1.55,0.61,2.81,1.84,3.79
				C1094.36,273.72,1095.92,274.21,1097.81,274.21z"/>
			<path class="st65" d="M1137.11,259.78c0-3.79,0.67-7.43,2-10.9c1.33-3.48,3.28-6.53,5.85-9.17c2.56-2.63,5.74-4.74,9.53-6.32
				c3.79-1.58,8.15-2.37,13.06-2.37c6.74,0,12.38,1.41,16.91,4.21c4.53,2.81,7.92,6.43,10.17,10.85l-19.49,5.9
				c-1.9-2.74-4.46-4.11-7.69-4.11c-2.74,0-5.06,1.04-6.95,3.11c-1.9,2.07-2.84,5-2.84,8.8s0.95,6.73,2.84,8.8
				c1.9,2.07,4.22,3.11,6.95,3.11c3.23,0,5.8-1.37,7.69-4.11l19.49,5.9c-2.25,4.43-5.64,8.04-10.17,10.85
				c-4.53,2.81-10.17,4.21-16.91,4.21c-4.92,0-9.27-0.79-13.06-2.37c-3.79-1.58-6.97-3.69-9.53-6.32c-2.56-2.63-4.51-5.69-5.85-9.17
				C1137.78,267.21,1137.11,263.57,1137.11,259.78z"/>
			<path class="st65" d="M1228.66,288.54c-4.85,0-9.17-0.75-12.96-2.26c-3.79-1.51-6.97-3.56-9.53-6.16
				c-2.56-2.6-4.51-5.58-5.85-8.95c-1.34-3.37-2-6.92-2-10.64c0-4,0.65-7.8,1.95-11.38c1.3-3.58,3.23-6.71,5.79-9.38
				c2.56-2.67,5.72-4.79,9.48-6.37c3.76-1.58,8.13-2.37,13.12-2.37c4.92,0,9.27,0.79,13.06,2.37c3.79,1.58,6.97,3.69,9.53,6.32
				c2.56,2.63,4.49,5.69,5.79,9.17c1.3,3.48,1.95,7.11,1.95,10.9c0,1.05-0.05,2.13-0.16,3.21c-0.11,1.09-0.23,2.05-0.37,2.9h-38.87
				c0.21,2.95,1.3,5.07,3.27,6.37c1.97,1.3,4.11,1.95,6.43,1.95c2.18,0,4.23-0.49,6.16-1.47c1.93-0.98,3.21-2.35,3.85-4.11
				l16.96,4.85c-2.25,4.43-5.71,8.04-10.38,10.85C1241.21,287.14,1235.47,288.54,1228.66,288.54z M1237.51,253.88
				c-0.35-2.67-1.34-4.78-2.95-6.32c-1.62-1.54-3.69-2.32-6.22-2.32c-2.53,0-4.6,0.77-6.22,2.32c-1.62,1.55-2.6,3.65-2.95,6.32
				H1237.51z"/>
		</g>
	</g>
	<g>
		<path class="st64" d="M615.4,427.23l-18.65-55.41h20.54l9.9,39.72l10.01-39.72h18.65l-18.65,55.41H615.4z"/>
		<path class="st64" d="M661.64,367.18v-16.86h20.02v16.86H661.64z M661.64,427.23v-55.41h20.02v55.41H661.64z"/>
		<path class="st64" d="M730.44,388.89c-3.86,0-7.37,0.42-10.54,1.26c-3.16,0.84-5.51,2.25-7.06,4.21v32.87h-20.02v-55.41h18.33
			v10.54c1.96-3.72,4.41-6.58,7.32-8.59c2.91-2,6.06-3,9.43-3c1.33,0,2.18,0.04,2.53,0.11V388.89z"/>
		<path class="st64" d="M776.69,424.18c-2.81,1.19-5.81,2.2-9.01,3c-3.2,0.81-6.34,1.21-9.43,1.21c-2.25,0-4.39-0.28-6.43-0.84
			c-2.04-0.56-3.81-1.47-5.32-2.74c-1.51-1.26-2.7-2.91-3.58-4.95c-0.88-2.04-1.32-4.56-1.32-7.58v-25.39h-6.85v-15.06h6.85v-17.38
			h20.02v17.38h10.85v15.06h-10.85v18.33c0,1.83,0.39,3.11,1.16,3.85c0.77,0.74,1.83,1.11,3.16,1.11c0.98,0,2.11-0.16,3.37-0.47
			c1.26-0.32,2.53-0.75,3.79-1.32L776.69,424.18z"/>
		<path class="st64" d="M800.39,428.29c-5.62,0-9.9-1.7-12.85-5.11c-2.95-3.41-4.43-8.37-4.43-14.91v-36.45h20.02v31.92
			c0,2.46,0.54,4.36,1.63,5.69c1.09,1.33,2.58,2,4.48,2c1.54,0,3.12-0.35,4.74-1.05c1.61-0.7,3.23-2.25,4.85-4.64v-33.92h20.02
			v33.29c0,1.9,0.35,3.21,1.05,3.95c0.7,0.74,1.97,1.18,3.79,1.32v16.86c-2.04,0.35-3.83,0.61-5.37,0.79
			c-1.55,0.17-2.92,0.26-4.11,0.26c-6.81,0-10.75-2.56-11.8-7.69l-0.42-2c-2.6,3.44-5.69,5.92-9.27,7.43
			C809.13,427.53,805.02,428.29,800.39,428.29z"/>
		<path class="st64" d="M868.97,428.29c-2.74,0-5.3-0.46-7.69-1.37c-2.39-0.91-4.44-2.16-6.16-3.74c-1.72-1.58-3.07-3.46-4.06-5.64
			c-0.98-2.18-1.47-4.53-1.47-7.06c0-2.81,0.6-5.37,1.79-7.69c1.19-2.32,2.84-4.32,4.95-6c2.11-1.69,4.62-2.98,7.53-3.9
			c2.91-0.91,6.13-1.37,9.64-1.37c4.49,0,8.22,0.7,11.17,2.11v-1.69c0-2.6-0.76-4.53-2.26-5.79c-1.51-1.26-3.95-1.9-7.32-1.9
			c-3.16,0-6.08,0.51-8.74,1.53c-2.67,1.02-5.48,2.51-8.43,4.48l-5.79-12.43c7.3-4.7,15.63-7.06,24.97-7.06
			c8.85,0,15.66,1.97,20.44,5.9c4.78,3.93,7.16,9.83,7.16,17.7v10.75c0,1.9,0.35,3.21,1.05,3.95c0.7,0.74,1.96,1.18,3.79,1.32v16.86
			c-1.83,0.35-3.55,0.61-5.16,0.79c-1.62,0.17-3.05,0.26-4.32,0.26c-3.58,0-6.31-0.65-8.16-1.95c-1.86-1.3-3.07-3.21-3.64-5.74
			l-0.42-2c-2.46,3.16-5.3,5.57-8.53,7.22C876.06,427.46,872.62,428.29,868.97,428.29z M874.98,413.96c1.19,0,2.42-0.19,3.69-0.58
			c1.26-0.39,2.39-0.9,3.37-1.53c0.77-0.56,1.4-1.18,1.9-1.84c0.49-0.67,0.74-1.35,0.74-2.05v-4.11c-1.19-0.42-2.49-0.77-3.9-1.05
			c-1.4-0.28-2.67-0.42-3.79-0.42c-2.46,0-4.5,0.6-6.11,1.79c-1.62,1.2-2.42,2.7-2.42,4.53c0,1.55,0.61,2.81,1.84,3.79
			C871.52,413.47,873.08,413.96,874.98,413.96z"/>
		<path class="st64" d="M917.01,350.33h20.02v53.52c0,4.21,1.72,6.32,5.16,6.32c0.84,0,1.75-0.14,2.74-0.42
			c0.98-0.28,1.9-0.67,2.74-1.16l2.53,16.12c-2.39,1.12-5.08,2-8.06,2.63c-2.99,0.63-5.81,0.95-8.48,0.95
			c-5.34,0-9.45-1.37-12.33-4.11c-2.88-2.74-4.32-6.71-4.32-11.9V350.33z"/>
		<path class="st64" d="M981.27,428.29c-2.32,0-4.81-0.18-7.48-0.53c-2.67-0.35-5.29-0.81-7.85-1.37c-2.56-0.56-5.04-1.25-7.43-2.05
			c-2.39-0.81-4.46-1.7-6.22-2.69l7.69-13.59c3.86,2.04,7.55,3.58,11.06,4.64c3.51,1.05,6.78,1.58,9.8,1.58
			c3.51,0,5.27-0.88,5.27-2.63c0-0.91-0.7-1.72-2.11-2.42c-1.41-0.7-4.07-1.54-8.01-2.53c-3.93-1.05-7.23-2.11-9.9-3.16
			c-2.67-1.05-4.81-2.23-6.43-3.53c-1.62-1.3-2.77-2.74-3.48-4.32c-0.7-1.58-1.05-3.42-1.05-5.53c0-2.81,0.58-5.41,1.74-7.8
			c1.16-2.39,2.79-4.46,4.9-6.22c2.11-1.75,4.62-3.11,7.53-4.06c2.91-0.95,6.09-1.42,9.54-1.42c3.72,0,7.71,0.53,11.96,1.58
			c4.25,1.05,8.59,2.6,13.01,4.64l-7.69,12.75c-3.93-1.83-7.2-3.14-9.8-3.95c-2.6-0.81-5.09-1.21-7.48-1.21
			c-1.55,0-2.79,0.23-3.74,0.68c-0.95,0.46-1.42,1.18-1.42,2.16c0,0.56,0.14,1.04,0.42,1.42c0.28,0.39,0.77,0.76,1.47,1.11
			c0.7,0.35,1.67,0.72,2.9,1.11c1.23,0.39,2.75,0.79,4.58,1.21c4.21,1.05,7.76,2.16,10.64,3.32c2.88,1.16,5.18,2.42,6.9,3.79
			c1.72,1.37,2.95,2.92,3.69,4.64c0.74,1.72,1.11,3.71,1.11,5.95c0,5.69-2.16,10.18-6.48,13.48
			C994.6,426.64,988.72,428.29,981.27,428.29z"/>
		<path class="st64" d="M1050.49,428.29c-4,0-7.48-0.79-10.43-2.37c-2.95-1.58-5.23-3.88-6.85-6.9v30.66h-20.02v-77.85h17.38v8.32
			c1.97-3.02,4.39-5.34,7.27-6.95c2.88-1.61,6.43-2.42,10.64-2.42c3.65,0,7.06,0.72,10.22,2.16c3.16,1.44,5.86,3.42,8.11,5.95
			c2.25,2.53,4.02,5.55,5.32,9.06c1.3,3.51,1.95,7.31,1.95,11.38c0,4.15-0.6,7.99-1.79,11.54c-1.19,3.55-2.84,6.62-4.95,9.22
			c-2.11,2.6-4.6,4.62-7.48,6.06C1056.98,427.57,1053.86,428.29,1050.49,428.29z M1043.54,411.43c1.47,0,2.83-0.32,4.06-0.95
			c1.23-0.63,2.28-1.51,3.16-2.63c0.88-1.12,1.58-2.42,2.11-3.9c0.53-1.47,0.79-3.05,0.79-4.74c0-3.51-1-6.32-3-8.43
			c-2-2.11-4.65-3.16-7.95-3.16c-3.72,0-6.88,1.9-9.48,5.69v9.59c0.98,2.46,2.42,4.5,4.32,6.11
			C1039.43,410.62,1041.43,411.43,1043.54,411.43z"/>
		<path class="st64" d="M1098.63,428.29c-2.74,0-5.3-0.46-7.69-1.37c-2.39-0.91-4.44-2.16-6.16-3.74c-1.72-1.58-3.07-3.46-4.06-5.64
			c-0.98-2.18-1.47-4.53-1.47-7.06c0-2.81,0.6-5.37,1.79-7.69c1.19-2.32,2.84-4.32,4.95-6c2.11-1.69,4.62-2.98,7.53-3.9
			c2.91-0.91,6.13-1.37,9.64-1.37c4.49,0,8.22,0.7,11.17,2.11v-1.69c0-2.6-0.76-4.53-2.26-5.79c-1.51-1.26-3.95-1.9-7.32-1.9
			c-3.16,0-6.08,0.51-8.74,1.53c-2.67,1.02-5.48,2.51-8.43,4.48l-5.79-12.43c7.3-4.7,15.63-7.06,24.97-7.06
			c8.85,0,15.66,1.97,20.44,5.9c4.78,3.93,7.16,9.83,7.16,17.7v10.75c0,1.9,0.35,3.21,1.05,3.95c0.7,0.74,1.96,1.18,3.79,1.32v16.86
			c-1.83,0.35-3.55,0.61-5.16,0.79c-1.62,0.17-3.06,0.26-4.32,0.26c-3.58,0-6.31-0.65-8.16-1.95c-1.86-1.3-3.07-3.21-3.64-5.74
			l-0.42-2c-2.46,3.16-5.3,5.57-8.53,7.22C1105.73,427.46,1102.28,428.29,1098.63,428.29z M1104.64,413.96
			c1.19,0,2.42-0.19,3.69-0.58c1.26-0.39,2.39-0.9,3.37-1.53c0.77-0.56,1.4-1.18,1.9-1.84c0.49-0.67,0.74-1.35,0.74-2.05v-4.11
			c-1.19-0.42-2.49-0.77-3.9-1.05c-1.4-0.28-2.67-0.42-3.79-0.42c-2.46,0-4.5,0.6-6.11,1.79c-1.62,1.2-2.42,2.7-2.42,4.53
			c0,1.55,0.61,2.81,1.84,3.79C1101.18,413.47,1102.74,413.96,1104.64,413.96z"/>
		<path class="st64" d="M1143.93,399.53c0-3.79,0.67-7.43,2-10.9c1.33-3.48,3.28-6.53,5.85-9.17c2.56-2.63,5.74-4.74,9.53-6.32
			c3.79-1.58,8.15-2.37,13.06-2.37c6.74,0,12.38,1.41,16.91,4.21c4.53,2.81,7.92,6.43,10.17,10.85l-19.49,5.9
			c-1.9-2.74-4.46-4.11-7.69-4.11c-2.74,0-5.06,1.04-6.95,3.11c-1.9,2.07-2.84,5-2.84,8.8c0,3.79,0.95,6.73,2.84,8.8
			c1.9,2.07,4.22,3.11,6.95,3.11c3.23,0,5.8-1.37,7.69-4.11l19.49,5.9c-2.25,4.43-5.64,8.04-10.17,10.85
			c-4.53,2.81-10.17,4.21-16.91,4.21c-4.92,0-9.27-0.79-13.06-2.37c-3.79-1.58-6.97-3.69-9.53-6.32c-2.56-2.63-4.51-5.69-5.85-9.17
			C1144.6,406.95,1143.93,403.32,1143.93,399.53z"/>
		<path class="st64" d="M1235.48,428.29c-4.85,0-9.17-0.75-12.96-2.26c-3.79-1.51-6.97-3.56-9.53-6.16
			c-2.56-2.6-4.51-5.58-5.85-8.95c-1.34-3.37-2-6.92-2-10.64c0-4,0.65-7.8,1.95-11.38c1.3-3.58,3.23-6.71,5.79-9.38
			c2.56-2.67,5.72-4.79,9.48-6.37c3.76-1.58,8.13-2.37,13.12-2.37c4.92,0,9.27,0.79,13.06,2.37c3.79,1.58,6.97,3.69,9.53,6.32
			c2.56,2.63,4.49,5.69,5.79,9.17c1.3,3.48,1.95,7.11,1.95,10.9c0,1.05-0.05,2.13-0.16,3.21c-0.11,1.09-0.23,2.05-0.37,2.9h-38.87
			c0.21,2.95,1.3,5.07,3.27,6.37c1.97,1.3,4.11,1.95,6.43,1.95c2.18,0,4.23-0.49,6.16-1.47c1.93-0.98,3.21-2.35,3.85-4.11
			l16.96,4.85c-2.25,4.43-5.71,8.04-10.38,10.85C1248.04,426.88,1242.29,428.29,1235.48,428.29z M1244.33,393.63
			c-0.35-2.67-1.34-4.78-2.95-6.32c-1.62-1.54-3.69-2.32-6.22-2.32c-2.53,0-4.6,0.77-6.22,2.32c-1.62,1.55-2.6,3.65-2.95,6.32
			H1244.33z"/>
	</g>
	<rect x="0.45" y="681" width="274.2" height="87"/>
	<rect x="275.21" y="681" class="st64" width="274.2" height="87"/>
	<rect x="547.05" y="681" class="st66" width="274.2" height="87"/>
	<rect x="819.42" y="681" class="st65" width="274.2" height="87"/>
	<rect x="1091.8" y="681" class="st67" width="274.2" height="87"/>
	<text transform="matrix(1 0 0 1 43.8906 655.7812)" class="st68 st69">#000000</text>
	<text transform="matrix(1 0 0 1 334.3938 656.3042)" class="st68 st69">#662D91</text>
	<text transform="matrix(1 0 0 1 601.3938 655.3042)" class="st68 st69">#FF33A3</text>
	<text transform="matrix(1 0 0 1 877.3938 655.3042)" class="st68 st69">#03FF6E</text>
	<text transform="matrix(1 0 0 1 1142.3938 655.3042)" class="st68 st69">#F3F6F7</text>
</g>
</svg>
